<svg width="142" height="29" viewBox="0 0 142 29" fill="none" xmlns="http://www.w3.org/2000/svg">
<path d="M13.7221 0.468628L16.7531 10.1424H26.5614L18.6263 16.1211L21.6572 25.7949L13.7221 19.8162L5.78704 25.7949L8.81798 16.1211L0.882874 10.1424H10.6912L13.7221 0.468628Z" fill="#FF5C00"/>
<path d="M53.7221 0.468628L56.7531 10.1424H66.5614L58.6263 16.1211L61.6572 25.7949L53.7221 19.8162L45.787 25.7949L48.818 16.1211L40.8829 10.1424H50.6912L53.7221 0.468628Z" fill="#FF5C00"/>
<path d="M92.7221 0.468628L95.7531 10.1424H105.561L97.6263 16.1211L100.657 25.7949L92.7221 19.8162L84.787 25.7949L87.818 16.1211L79.8829 10.1424H89.6912L92.7221 0.468628Z" fill="#FF5C00"/>
<path d="M127.722 0.468628L130.753 10.1424H140.561L132.626 16.1211L135.657 25.7949L127.722 19.8162L119.787 25.7949L122.818 16.1211L114.883 10.1424H124.691L127.722 0.468628Z" fill="#FF5C00"/>
</svg>
